HIERARCHY
ROOT reference
{
  OFFSET 0 0 0
  CHANNELS 6 Xposition Yposition Zposition Zrotation Xrotation Yrotation
  JOINT Hips
  {
    OFFSET 34.2675 94.8174 133.911
    CHANNELS 6 Xposition Yposition Zposition Zrotation Xrotation Yrotation
    JOINT Spine
    {
      OFFSET 0 8.22665 0
      CHANNELS 6 Xposition Yposition Zposition Zrotation Xrotation Yrotation
      JOINT Spine1
      {
        OFFSET 0 24.451 0
        CHANNELS 6 Xposition Yposition Zposition Zrotation Xrotation Yrotation
        JOINT Neck
        {
          OFFSET 0 24.3506 2.21369
          CHANNELS 6 Xposition Yposition Zposition Zrotation Xrotation Yrotation
          JOINT Head
          {
            OFFSET 0 14.0455 -2.0065
            CHANNELS 6 Xposition Yposition Zposition Zrotation Xrotation Yrotation
            End Site
            {
              OFFSET 0 25.0812 0
            }
          }
        }
        JOINT LeftShoulder
        {
          OFFSET 4.0594 22.2558 -0.272799
          CHANNELS 6 Xposition Yposition Zposition Zrotation Xrotation Yrotation
          JOINT LeftArm
          {
            OFFSET 12.0298 0 0
            CHANNELS 6 Xposition Yposition Zposition Zrotation Xrotation Yrotation
            JOINT LeftForeArm
            {
              OFFSET 31.2689 0 0
              CHANNELS 6 Xposition Yposition Zposition Zrotation Xrotation Yrotation
              JOINT LeftHand
              {
                OFFSET 28.0275 0 0
                CHANNELS 6 Xposition Yposition Zposition Zrotation Xrotation Yrotation
                End Site
                {
                  OFFSET 15.0487 0 0
                }
              }
            }
          }
        }
        JOINT RightShoulder
        {
          OFFSET -3.96464 22.2558 -0.272799
          CHANNELS 6 Xposition Yposition Zposition Zrotation Xrotation Yrotation
          JOINT RightArm
          {
            OFFSET -12.0298 0 0
            CHANNELS 6 Xposition Yposition Zposition Zrotation Xrotation Yrotation
            JOINT RightForeArm
            {
              OFFSET -31.2689 0 0
              CHANNELS 6 Xposition Yposition Zposition Zrotation Xrotation Yrotation
              JOINT RightHand
              {
                OFFSET -28.0275 0 0
                CHANNELS 6 Xposition Yposition Zposition Zrotation Xrotation Yrotation
                End Site
                {
                  OFFSET -15.0487 0 0
                }
              }
            }
          }
        }
      }
    }
    JOINT LeftUpLeg
    {
      OFFSET 10.0325 0 0
      CHANNELS 6 Xposition Yposition Zposition Zrotation Xrotation Yrotation
      JOINT LeftLeg
      {
        OFFSET 0 -38.4033 0
        CHANNELS 6 Xposition Yposition Zposition Zrotation Xrotation Yrotation
        JOINT LeftFoot
        {
          OFFSET 0 -44.1642 0
          CHANNELS 6 Xposition Yposition Zposition Zrotation Xrotation Yrotation
          JOINT LeftToeBase
          {
            OFFSET 0 -6.52112 15.0487
            CHANNELS 6 Xposition Yposition Zposition Zrotation Xrotation Yrotation
            End Site
            {
              OFFSET 0 0 4.013
            }
          }
        }
      }
    }
    JOINT RightUpLeg
    {
      OFFSET -10.0325 0 0
      CHANNELS 6 Xposition Yposition Zposition Zrotation Xrotation Yrotation
      JOINT RightLeg
      {
        OFFSET 0 -38.4033 0
        CHANNELS 6 Xposition Yposition Zposition Zrotation Xrotation Yrotation
        JOINT RightFoot
        {
          OFFSET 0 -44.1642 0
          CHANNELS 6 Xposition Yposition Zposition Zrotation Xrotation Yrotation
          JOINT RightToeBase
          {
            OFFSET 0 -6.52112 15.0487
            CHANNELS 6 Xposition Yposition Zposition Zrotation Xrotation Yrotation
            End Site
            {
              OFFSET 0 0 4.013
            }
          }
        }
      }
    }
  }
}
MOTION
Frames:	4
Frame Time:	0.004
0 0 0 0 0 -0 -18.0763 89.7769 -123.09 3.44658 -8.10949 -0.538687 0 8.22665 1.42109e-014 -0.472034 3.147 0.33136 -1.77636e-015 24.451 -1.42109e-014 0.959748 18.4452 0.162693 -1.77636e-015 24.3506 2.21369 8.11381 14.2875 15.2194 7.10543e-015 14.0455 -2.0065 -18.7108 -7.11477 11.9358 4.0594 22.2558 -0.272799 3.968 25.4957 13.6717 12.0298 -1.42109e-014 0 -78.0429 35.2982 16.5789 31.2689 0 -2.84217e-014 -5.72958 3.88158 12.3669 28.0275 0 0 40.4776 5.47847 2.65966 -3.96464 22.2558 -0.272799 -4.81585 18.6948 -10.1756 -12.0298 0 0 52.9637 44.2715 -15.0513 -31.2689 0 0 5.32749 -8.08036 -7.87206 -28.0275 0 2.84217e-014 -2.05459 -7.5776 -7.84405 10.0325 2.84217e-014 0 -5.52762 -14.4703 5.11718 8.88178e-016 -38.4033 -1.42109e-014 -1.03112 44.912 -8.18244 0 -44.1642 0 -3.58541 -7.28321 12.2527 -1.77636e-015 -6.52112 15.0487 -3.97569e-016 -3.18055e-015 1.59028e-015 -10.0325 1.42109e-014 1.42109e-014 -1.81523 -14.4842 -2.13698 -3.55271e-015 -38.4033 0 -4.82469 59.0475 4.98873 -3.55271e-015 -44.1642 0 3.21641 5.30677 -11.0109 0 -6.52112 15.0487 7.95139e-016 0 3.18055e-015 
0 0 0 0 0 -0 -18.0053 89.8378 -122.714 3.5528 -8.16855 -0.584817 -3.55271e-015 8.22665 0 -0.58516 3.35696 0.313089 -3.55271e-015 24.451 0 0.997241 18.4512 0.134181 0 24.3506 2.21369 8.04403 14.1717 15.3074 0 14.0455 -2.0065 -18.6812 -7.06864 12.0342 4.0594 22.2558 -0.272799 3.76903 25.786 13.9781 12.0298 1.42109e-014 -2.84217e-014 -78.3025 35.1709 17.0479 31.2689 7.10543e-015 -2.84217e-014 -5.72685 3.87787 12.3155 28.0275 0 -2.84217e-014 40.9174 5.39351 2.41768 -3.96464 22.2558 -0.272799 -4.92801 18.7266 -10.4272 -12.0298 0 0 53.1055 44.1985 -15.6601 -31.2689 1.42109e-014 0 5.40152 -8.14509 -7.91828 -28.0275 0 2.84217e-014 -1.92829 -7.64462 -7.7928 10.0325 -2.84217e-014 1.42109e-014 -5.8531 -14.6085 5.26243 -1.77636e-015 -38.4033 0 -0.430247 44.19 -8.99257 -3.55271e-015 -44.1642 -1.42109e-014 -3.30245 -7.29269 12.3431 1.77636e-015 -6.52112 15.0487 -1.19271e-015 0 -1.59028e-015 -10.0325 -2.84217e-014 0 -2.09143 -15.2322 -2.88117 0 -38.4033 1.42109e-014 -5.65962 60.1122 5.99018 -3.55271e-015 -44.1642 0 3.45498 5.47081 -11.2297 0 -6.52112 15.0487 -3.18055e-015 6.36111e-015 -4.77083e-015 
0 0 0 0 0 -0 -17.9499 89.8823 -122.349 3.63428 -8.22898 -0.597034 -1.77636e-015 8.22665 0 -0.722835 3.53546 0.315934 1.77636e-015 24.451 0 1.1436 18.5364 0.107101 1.77636e-015 24.3506 2.21369 7.89883 13.9237 15.3681 0 14.0455 -2.0065 -18.5543 -6.93442 12.1294 4.0594 22.2558 -0.272799 3.54564 25.9255 14.1535 12.0298 0 0 -78.541 34.9987 17.5674 31.2689 0 0 -5.72289 3.82822 12.3063 28.0275 0 2.84217e-014 41.2148 5.24803 2.14489 -3.96464 22.2558 -0.272799 -5.05538 18.5928 -10.6815 -12.0298 -1.42109e-014 2.84217e-014 53.3586 43.9598 -16.4034 -31.2689 2.13163e-014 2.84217e-014 5.38162 -8.2125 -8.05181 -28.0275 0 2.84217e-014 -2.02611 -7.70597 -7.48783 10.0325 0 0 -6.11879 -14.7767 5.24915 -1.77636e-015 -38.4033 0 -0.0549069 43.4944 -9.24324 0 -44.1642 0 -3.60782 -7.22349 12.1046 0 -6.52112 15.0487 -7.95139e-016 -3.18055e-015 -0 -10.0325 0 1.42109e-014 -2.25155 -15.879 -3.4721 0 -38.4033 1.42109e-014 -6.60166 60.9593 6.73959 0 -44.1642 -1.42109e-014 4.44212 5.07722 -11.3083 0 -6.52112 15.0487 -0 0 3.18055e-015 
0 0 0 0 0 -0 -17.8966 89.9089 -121.98 3.73268 -8.28514 -0.589361 -1.77636e-015 8.22665 0 -0.859274 3.8049 0.330067 0 24.451 1.42109e-014 1.25729 18.3878 0.098031 0 24.3506 2.21369 7.72372 13.8661 15.4072 -1.42109e-014 14.0455 -2.0065 -18.3773 -6.92729 12.2071 4.0594 22.2558 -0.272799 3.41775 26.1491 14.2168 12.0298 2.84217e-014 -2.84217e-014 -78.8572 34.8434 18.1932 31.2689 7.10543e-015 0 -5.71783 3.79875 12.1673 28.0275 0 0 41.4609 5.07582 1.77228 -3.96464 22.2558 -0.272799 -5.17312 18.7538 -11.016 -12.0298 0 0 53.407 43.6379 -16.8078 -31.2689 0 -2.84217e-014 5.38853 -8.31752 -8.29518 -28.0275 -1.42109e-014 5.68434e-014 -1.96726 -7.81033 -7.06344 10.0325 1.42109e-014 1.42109e-014 -6.41878 -14.9236 5.20018 0 -38.4033 0 0.379203 42.851 -9.72631 -3.55271e-015 -44.1642 1.42109e-014 -3.81798 -7.24274 12.0207 -1.77636e-015 -6.52112 15.0487 1.39149e-015 0 -1.59028e-015 -10.0325 0 0 -2.46713 -16.4722 -3.94759 -7.10543e-015 -38.4033 0 -7.15906 61.737 7.37218 -3.55271e-015 -44.1642 2.84217e-014 4.94518 4.70398 -11.9691 -7.10543e-015 -6.52112 15.0487 -3.18055e-015 6.36111e-015 -0 
